<svg width="1280" height="720" viewBox="0 0 1280 720" fill="none" xmlns="http://www.w3.org/2000/svg">
<path fill-rule="evenodd" clip-rule="evenodd" d="M1231 180C1248.37 180 1264.92 176.514 1280 170.202V108.318C1266.96 119.879 1249.8 126.899 1231 126.899C1190.19 126.899 1157.1 93.813 1157.1 53C1157.1 32.2114 1165.69 13.4277 1179.5 0H1115.55C1108.14 16.1305 1104 34.0822 1104 53C1104 123.14 1160.86 180 1231 180ZM0 0H1114.45C1107.1 16.1496 1103 34.0963 1103 53C1103 123.692 1160.31 181 1231 181C1248.36 181 1264.91 177.545 1280 171.286V720H147.706C150.507 709.472 152 698.41 152 687C152 616.308 94.6924 559 24 559C15.7969 559 7.77402 559.772 0 561.246V0ZM146.67 720C149.494 709.477 151 698.414 151 687C151 616.86 94.1402 560 24 560C15.795 560 7.77176 560.778 0 562.265V617.086C7.52512 614.503 15.5988 613.101 24 613.101C64.813 613.101 97.8986 646.187 97.8986 687C97.8986 698.86 95.1047 710.067 90.1392 720H146.67ZM89.019 720C94.058 710.092 96.8986 698.878 96.8986 687C96.8986 646.739 64.2608 614.101 24 614.101C15.5915 614.101 7.51558 615.525 0 618.144V720H89.019ZM1231 125.899C1249.86 125.899 1267.06 118.733 1280 106.975V0H1180.95C1166.88 13.29 1158.1 32.1198 1158.1 53C1158.1 93.2608 1190.74 125.899 1231 125.899Z" fill="#1E5AF9"/>
<line x1="169.5" y1="2.18557e-08" x2="169.5" y2="720" stroke="#ECF2FF"/>
<line x1="1088.5" y1="2.18557e-08" x2="1088.5" y2="720" stroke="#ECF2FF"/>
<line opacity="0.2" x1="462.5" y1="2.18557e-08" x2="462.5" y2="720" stroke="#ECF2FF"/>
<line opacity="0.2" x1="627.5" y1="2.18557e-08" x2="627.5" y2="720" stroke="#ECF2FF"/>
<line opacity="0.2" x1="792.5" y1="2.18557e-08" x2="792.5" y2="720" stroke="#ECF2FF"/>
<circle cx="169.5" cy="218.5" r="9" fill="#1E5AF9" stroke="#FAFAFA" stroke-width="3"/>
<g filter="url(#filter0_d_196_415)">
<circle cx="1088.5" cy="378.5" r="10.5" fill="#FAFAFA"/>
</g>
<defs>
<filter id="filter0_d_196_415" x="1058" y="354" width="61" height="61" filterUnits="userSpaceOnUse" color-interpolation-filters="sRGB">
<feFlood flood-opacity="0" result="BackgroundImageFix"/>
<feColorMatrix in="SourceAlpha" type="matrix" values="0 0 0 0 0 0 0 0 0 0 0 0 0 0 0 0 0 0 127 0" result="hardAlpha"/>
<feOffset dy="6"/>
<feGaussianBlur stdDeviation="10"/>
<feComposite in2="hardAlpha" operator="out"/>
<feColorMatrix type="matrix" values="0 0 0 0 0 0 0 0 0 0 0 0 0 0 0 0 0 0 0.25 0"/>
<feBlend mode="normal" in2="BackgroundImageFix" result="effect1_dropShadow_196_415"/>
<feBlend mode="normal" in="SourceGraphic" in2="effect1_dropShadow_196_415" result="shape"/>
</filter>
</defs>
</svg>
