<svg width="488" height="255" viewBox="0 0 488 255" fill="none" xmlns="http://www.w3.org/2000/svg">
<path fill-rule="evenodd" clip-rule="evenodd" d="M462 90C471.285 90 480.093 87.9591 488 84.3014V55.1319C481.25 61.6024 472.089 65.5784 462 65.5784C441.246 65.5784 424.422 48.754 424.422 28C424.422 16.8758 429.255 6.88056 436.937 0H406.668C402.403 8.4107 400 17.9247 400 28C400 62.2417 427.758 90 462 90ZM16 0H405.549C401.357 8.43471 399 17.9421 399 28C399 62.7939 427.206 91 462 91C471.271 91 480.074 88.9976 488 85.4016V239C488 247.837 480.837 255 472 255H16C7.16345 255 0 247.837 0 239V16C0 7.16344 7.16344 0 16 0ZM462 64.5784C472.17 64.5784 481.37 60.4282 488 53.729V16C488 7.16344 480.837 0 472 0H438.462C430.488 6.70989 425.422 16.7632 425.422 28C425.422 48.2017 441.798 64.5784 462 64.5784ZM210 173C210 207.242 182.242 235 148 235C113.758 235 86 207.242 86 173C86 138.758 113.758 111 148 111C182.242 111 210 138.758 210 173ZM110.422 173C110.422 193.754 127.246 210.578 148 210.578C168.754 210.578 185.578 193.754 185.578 173C185.578 152.246 168.754 135.422 148 135.422C127.246 135.422 110.422 152.246 110.422 173ZM211 173C211 207.794 182.794 236 148 236C113.206 236 85 207.794 85 173C85 138.206 113.206 110 148 110C182.794 110 211 138.206 211 173ZM111.422 173C111.422 193.202 127.798 209.578 148 209.578C168.202 209.578 184.578 193.202 184.578 173C184.578 152.798 168.202 136.422 148 136.422C127.798 136.422 111.422 152.798 111.422 173ZM40.7772 38.7212L40.6878 37.8199C40.5912 36.8459 40.1967 36.1561 39.5172 35.6558C38.8171 35.1403 37.7926 34.8274 36.3384 34.8274C35.3476 34.8274 34.5741 34.9685 33.9852 35.2104L33.9743 35.2149L33.9743 35.2149C33.3694 35.4552 32.9641 35.7655 32.6986 36.1174C32.4426 36.4697 32.3146 36.861 32.3146 37.3242V37.3424L32.314 37.3606C32.2998 37.7499 32.3798 38.0369 32.5153 38.2624C32.6957 38.5443 32.9497 38.8045 33.2984 39.038C33.6836 39.2854 34.142 39.5122 34.6805 39.7135C35.2375 39.9114 35.8371 40.0829 36.4805 40.2269L36.4876 40.2285L36.4946 40.2302L39.2974 40.9004C40.7161 41.2185 42.0301 41.6449 43.2358 42.1831C44.4589 42.7291 45.5355 43.4086 46.4554 44.2275C47.3923 45.0616 48.1222 46.0489 48.6385 47.1834C49.1752 48.3403 49.4363 49.6394 49.4474 51.0593L49.4475 51.0724H49.4474C49.4363 53.1611 48.8999 55.0215 47.8059 56.6112C46.7248 58.1867 45.178 59.3816 43.2208 60.2173L43.2183 60.2183C41.2619 61.0473 38.9485 61.4428 36.3079 61.4428C33.6834 61.4428 31.3495 61.0409 29.3295 60.2066L29.3278 60.2058C27.3048 59.3657 25.6895 58.1048 24.5215 56.4152L24.5172 56.4089C23.3488 54.6906 22.7648 52.6042 22.7105 50.2041L22.6873 49.1815H23.7102H30.1083H31.0427L31.106 50.1137C31.1665 51.0032 31.4143 51.681 31.803 52.1996C32.221 52.7335 32.7843 53.153 33.5256 53.449C34.2981 53.7431 35.1952 53.8999 36.2315 53.8999C37.2573 53.8999 38.0994 53.7503 38.7807 53.4812L38.7845 53.4796C39.4887 53.2048 39.9758 52.8463 40.3025 52.4326C40.6184 52.0324 40.7745 51.5849 40.7745 51.0518C40.7745 50.5635 40.6361 50.2144 40.3949 49.9379L40.3868 49.9287L40.3869 49.9287C40.1111 49.6046 39.658 49.2765 38.957 48.9799L38.9527 48.9781C38.2355 48.6707 37.3305 48.3811 36.2262 48.1149L36.217 48.1127L36.217 48.1126L32.819 47.2593L32.8154 47.2584C30.0708 46.5903 27.8259 45.528 26.1438 44.0252C24.3757 42.4457 23.5246 40.3215 23.5348 37.7675C23.5245 35.6839 24.0834 33.8207 25.2348 32.2203L25.2375 32.2165C26.3813 30.6425 27.9383 29.4331 29.8711 28.5765C31.8095 27.7174 33.987 27.2997 36.3842 27.2997C38.8179 27.2997 40.9911 27.716 42.8777 28.5814C44.7639 29.442 46.2677 30.6579 47.349 32.2401C48.4362 33.8308 48.9863 35.664 49.0198 37.7048L49.0364 38.7212H48.0199H41.6829H40.7772ZM42.4616 29.4908C40.7311 28.6967 38.7053 28.2997 36.3842 28.2997C34.1039 28.2997 32.0679 28.6967 30.2763 29.4908C28.4846 30.2848 27.0747 31.3893 26.0465 32.8043C25.0285 34.2193 24.5246 35.8736 24.5348 37.767C24.5246 40.0779 25.283 41.9154 26.81 43.2795C28.337 44.6436 30.4188 45.6463 33.0554 46.2876L36.4606 47.1428C37.6007 47.4176 38.5627 47.723 39.3466 48.0589C40.1406 48.3949 40.7412 48.8021 41.1484 49.2805C41.5658 49.759 41.7745 50.3494 41.7745 51.0518C41.7745 51.8052 41.5455 52.4719 41.0874 53.0522C40.6293 53.6325 39.9828 54.0855 39.1481 54.4112C38.3235 54.737 37.3513 54.8999 36.2315 54.8999C35.0914 54.8999 34.0683 54.7268 33.1623 54.3807C32.2665 54.0244 31.5488 53.5001 31.0092 52.8079C30.4799 52.1055 30.1796 51.23 30.1083 50.1815H24.7105H23.7103H23.7102C23.718 50.5231 23.7371 50.8565 23.7676 51.1815C23.9379 52.9965 24.4634 54.5515 25.3441 55.8466C26.3926 57.3634 27.8484 58.5086 29.7113 59.2823C31.5844 60.056 33.7833 60.4428 36.3079 60.4428C38.8529 60.4428 41.0263 60.0611 42.8281 59.2976C44.6402 58.5239 46.0246 57.4398 46.9815 56.0451C47.9486 54.6403 48.4373 52.9809 48.4474 51.0671C48.4373 49.7641 48.198 48.6087 47.7298 47.6009C47.2717 46.593 46.6252 45.7176 45.7905 44.9744C44.9557 44.2313 43.9683 43.6052 42.8281 43.0962C41.688 42.5872 40.4358 42.18 39.0717 41.8746L36.2621 41.2028C35.58 41.0501 34.9387 40.8668 34.3381 40.6531C33.7375 40.4291 33.2081 40.1695 32.75 39.8743C32.2919 39.5689 31.9305 39.2075 31.6658 38.7901C31.4113 38.3727 31.2943 37.8841 31.3146 37.3242C31.3146 36.6523 31.508 36.0517 31.8949 35.5224C32.2919 34.993 32.862 34.5807 33.6051 34.2855C34.3482 33.9801 35.2594 33.8274 36.3384 33.8274C37.9265 33.8274 39.1837 34.1684 40.1101 34.8505C41.0365 35.5326 41.5607 36.4895 41.6829 37.7212H47.0197H48.0199C48.0143 37.3804 47.993 37.0471 47.9561 36.7212C47.7912 35.2661 47.3136 33.9605 46.5234 32.8043C45.5563 31.3893 44.2024 30.2848 42.4616 29.4908ZM65.3881 35.5455V36.5455V41.4318V42.4318H64.3881H60.9751V52.7926C60.9751 53.3052 61.0556 53.5827 61.1251 53.7134C61.2029 53.8493 61.2869 53.9155 61.3861 53.9566C61.5826 54.033 61.8393 54.0831 62.174 54.0831C62.4186 54.0831 62.664 54.0631 62.9107 54.0228C63.2093 53.9632 63.4425 53.9175 63.6083 53.8864L64.5689 53.7063L64.771 54.6625L65.7941 59.5031L65.9822 60.393L65.114 60.6644C64.751 60.7778 64.2645 60.9013 63.6678 61.0351C62.9946 61.1968 62.2093 61.288 61.3253 61.32L61.3273 61.3199L61.2884 60.3213L61.3245 61.32L61.3253 61.32C59.6487 61.3851 58.1285 61.1638 56.79 60.6214L56.7872 60.6203C55.4379 60.0688 54.3611 59.1972 53.5924 58.0081C52.8095 56.7971 52.4595 55.3207 52.4702 53.6443V42.4318H50.2635H49.2635V41.4318V36.5455V35.5455H50.2635H52.4702V30.9261V29.9261H53.4702H59.9751H60.9751V30.9261V35.5455H64.3881H65.3881ZM59.9751 35.5455V36.5455H60.9751H63.3881H64.3881V37.5455V40.4318V41.4318H63.3881H60.9751H59.9751V42.4318V52.7926C59.9751 53.3932 60.0668 53.8615 60.25 54.1974C60.4332 54.5232 60.6877 54.7523 61.0135 54.8846C61.3494 55.0169 61.7363 55.0831 62.174 55.0831C62.4794 55.0831 62.7848 55.0576 63.0902 55.0067C63.3956 54.9457 63.6297 54.8999 63.7926 54.8693L64.8157 59.7099C64.4899 59.8117 64.0318 59.9287 63.4414 60.0611C62.851 60.2036 62.1333 60.2901 61.2883 60.3207C59.7206 60.3817 58.3464 60.1731 57.1655 59.6946C55.9948 59.2161 55.0837 58.473 54.4322 57.4652C53.7807 56.4574 53.46 55.1849 53.4702 53.6477V42.4318V41.4318H52.4702H51.2635H50.2635V40.4318V37.5455V36.5455H51.2635H52.4702H53.4702V35.5455V31.9261V30.9261H54.4702H58.9751H59.9751V31.9261V35.5455ZM71.4828 59.8642L71.4768 59.8608C69.5758 58.7761 68.1078 57.2384 67.0844 55.2694L67.0833 55.2674C66.0594 53.2863 65.5668 50.9795 65.5668 48.3796C65.5668 45.8361 66.0612 43.5569 67.0823 41.5702C68.1011 39.5879 69.547 38.0264 71.4128 36.9091L71.4151 36.9077C73.3028 35.7841 75.4907 35.2401 77.9429 35.2401C79.5979 35.2401 81.1566 35.5069 82.6103 36.0501C84.0845 36.5868 85.3771 37.4008 86.4779 38.4897C87.6025 39.5922 88.4604 40.9632 89.0645 42.5778C89.6756 44.201 89.9678 46.0654 89.9678 48.1506V49.9371V50.9371H88.9678H74.0592C74.1413 51.5378 74.3011 52.0572 74.5269 52.5049C74.8801 53.1847 75.3635 53.6909 75.9842 54.0489C76.5999 54.4042 77.3624 54.6023 78.3094 54.6023C78.938 54.6023 79.4895 54.5138 79.9734 54.3498C80.4468 54.1893 80.8324 53.9562 81.1471 53.6565C81.4588 53.3597 81.7044 52.99 81.879 52.5296L82.1414 51.8377L82.8799 51.8864L88.8962 52.2834L90.0472 52.3594L89.8087 53.488C89.469 55.0963 88.7671 56.5158 87.7038 57.7277C86.6517 58.9283 85.305 59.848 83.6926 60.4996L83.6893 60.5009C82.0725 61.1476 80.2371 61.4581 78.2025 61.4581C75.654 61.4581 73.4014 60.9412 71.4828 59.8642ZM73.6368 52.9606C73.3352 52.3646 73.14 51.6901 73.0511 50.9371C73.014 50.6226 72.9955 50.2944 72.9955 49.9524V49.9371H73.9955H87.9678H88.9678V48.9371V48.1506C88.9678 46.1553 88.6878 44.4145 88.1279 42.9283C87.568 41.4318 86.7842 40.1899 85.7764 39.2024C84.7787 38.215 83.608 37.4769 82.2643 36.9883C80.9307 36.4895 79.4903 36.2401 77.9429 36.2401C75.6422 36.2401 73.6368 36.7491 71.9266 37.767C70.2265 38.785 68.9082 40.2051 67.9717 42.0273C67.0351 43.8495 66.5668 45.967 66.5668 48.3796C66.5668 50.8533 67.0351 52.9962 67.9717 54.8082C68.9082 56.6101 70.2418 58.0047 71.9724 58.9922C73.7132 59.9695 75.7899 60.4581 78.2025 60.4581C80.1367 60.4581 81.8418 60.1629 83.3179 59.5724C84.8042 58.9718 86.0156 58.1371 86.9521 57.0682C87.6774 56.2416 88.2144 55.3075 88.5633 54.2658C88.6699 53.9477 88.7589 53.6195 88.8303 53.2812L87.8211 53.2146L82.814 52.8842C82.59 53.4747 82.2643 53.9735 81.8367 54.3807C81.4092 54.7879 80.8951 55.0933 80.2945 55.2969C79.6939 55.5005 79.0322 55.6023 78.3094 55.6023C77.2201 55.6023 76.2785 55.3732 75.4845 54.9151C74.6904 54.457 74.0745 53.8055 73.6368 52.9606ZM74.0029 45.9059H81.8445H82.8445C82.8445 45.5578 82.8164 45.2245 82.7602 44.9059C82.6651 44.3674 82.4896 43.871 82.2337 43.4169C81.8266 42.6941 81.2616 42.1291 80.5388 41.7219C79.8262 41.3046 78.9965 41.0959 78.0498 41.0959C77.0623 41.0959 76.1869 41.3249 75.4234 41.783C74.6701 42.2309 74.0796 42.8366 73.6521 43.6001C73.4196 44.0098 73.2488 44.4451 73.1397 44.9059C73.0637 45.2268 73.0177 45.5602 73.0016 45.9059H74.0029ZM74.1745 44.9059H81.7408C81.6597 44.54 81.5321 44.2088 81.3625 43.9077C81.045 43.3441 80.6115 42.9107 80.0479 42.5932L80.0406 42.5891L80.0334 42.5848C79.4954 42.2697 78.8453 42.0959 78.0498 42.0959C77.2233 42.0959 76.5294 42.2856 75.9379 42.6405L75.9345 42.6426C75.3318 43.0009 74.8662 43.4787 74.5246 44.0887L74.5218 44.0938C74.3764 44.3499 74.2603 44.62 74.1745 44.9059ZM91.3528 69.7955V68.7955V36.5455V35.5455H92.3528H98.7661H99.7661V36.5455V37.6463C100.375 36.9907 101.118 36.4504 101.982 36.0185C103.045 35.4815 104.309 35.2401 105.729 35.2401C107.624 35.2401 109.384 35.7389 110.988 36.7326C112.622 37.7346 113.896 39.2316 114.829 41.1639C115.779 43.1209 116.227 45.5161 116.227 48.3033C116.227 51.0221 115.789 53.3854 114.865 55.355C113.963 57.2908 112.706 58.8064 111.079 59.8494L111.077 59.8504C109.474 60.874 107.677 61.3817 105.714 61.3817C104.345 61.3817 103.117 61.1559 102.066 60.6603L102.062 60.6584C101.211 60.2527 100.471 59.7457 99.8578 59.1303V68.7955V69.7955H98.8578H92.3528H91.3528ZM98.8578 57.9073V57.2436V56.3336V56.2436H99.0563C99.2603 56.6938 99.5274 57.1415 99.8578 57.5868C100.006 57.786 100.166 57.9847 100.339 58.1829C100.899 58.814 101.617 59.3383 102.492 59.7557C103.378 60.1731 104.452 60.3817 105.714 60.3817C107.495 60.3817 109.104 59.9236 110.539 59.0075C111.985 58.0811 113.125 56.7221 113.96 54.9304C114.805 53.1286 115.227 50.9195 115.227 48.3033C115.227 45.6158 114.794 43.3813 113.929 41.5998C113.064 39.8081 111.908 38.4695 110.463 37.5838C109.017 36.688 107.439 36.2401 105.729 36.2401C104.416 36.2401 103.317 36.464 102.431 36.9119C101.555 37.3497 100.843 37.8994 100.293 38.5611C100.101 38.7926 99.9257 39.0229 99.7661 39.2518C99.4766 39.6671 99.24 40.0782 99.0563 40.4851H98.7661V40.3541V39.4851V38.9466V37.5455V36.5455H97.7661H93.3528H92.3528V37.5455V67.7955V68.7955H93.3528H97.8578H98.8578V67.7955V57.9073ZM107.064 51.5507L107.066 51.5456C107.404 50.6293 107.585 49.5439 107.585 48.2727C107.585 47.0094 107.409 45.9389 107.081 45.0436C106.757 44.1585 106.3 43.5183 105.735 43.071C105.203 42.6503 104.53 42.4165 103.653 42.4165C102.781 42.4165 102.108 42.6428 101.575 43.049C101.027 43.4745 100.571 44.102 100.237 44.9906C99.9017 45.8805 99.7203 46.9673 99.7203 48.2727C99.7203 49.5777 99.9016 50.6712 100.238 51.5731C100.572 52.4705 101.034 53.116 101.597 53.5633C102.132 53.9778 102.798 54.2053 103.653 54.2053C104.515 54.2053 105.183 53.9739 105.716 53.5536C106.282 53.0965 106.74 52.4458 107.064 51.5507ZM99.3006 51.9222C98.9138 50.8839 98.7203 49.6674 98.7203 48.2727C98.7203 46.8781 98.9138 45.6667 99.3006 44.6385C99.6874 43.6103 100.242 42.8163 100.965 42.2564C101.698 41.6965 102.594 41.4165 103.653 41.4165C104.721 41.4165 105.622 41.7067 106.355 42.2869C107.088 42.8672 107.643 43.6714 108.02 44.6996C108.396 45.7277 108.585 46.9188 108.585 48.2727C108.585 49.6368 108.391 50.8432 108.004 51.8917C107.628 52.93 107.073 53.7444 106.34 54.3349C105.607 54.9151 104.711 55.2053 103.653 55.2053C102.604 55.2053 101.713 54.9202 100.98 54.3501C100.247 53.7699 99.6874 52.9606 99.3006 51.9222ZM371.074 212.705V226H433.29V210.915H396.642V210.318L409.384 197.832C415.378 192.378 420.023 187.705 423.318 183.812C426.614 179.892 428.901 176.327 430.179 173.116C431.486 169.906 432.139 166.653 432.139 163.358C432.139 158.33 430.847 153.869 428.261 149.977C425.676 146.085 422.054 143.045 417.395 140.858C412.764 138.642 407.324 137.534 401.074 137.534C394.994 137.534 389.625 138.685 384.966 140.986C380.307 143.287 376.685 146.54 374.099 150.744C371.514 154.949 370.222 159.906 370.222 165.616H387.736C387.736 162.832 388.276 160.432 389.355 158.415C390.435 156.398 391.969 154.849 393.957 153.77C395.946 152.69 398.276 152.151 400.946 152.151C403.503 152.151 405.79 152.662 407.807 153.685C409.824 154.679 411.415 156.114 412.58 157.989C413.744 159.835 414.327 162.037 414.327 164.594C414.327 166.895 413.858 169.04 412.92 171.028C411.983 172.989 410.605 174.991 408.787 177.037C406.997 179.082 404.781 181.384 402.139 183.94L371.074 212.705ZM447.797 224.125C449.814 226.114 452.229 227.108 455.041 227.108C456.888 227.108 458.578 226.653 460.112 225.744C461.646 224.807 462.882 223.571 463.819 222.037C464.785 220.474 465.268 218.756 465.268 216.881C465.268 214.097 464.246 211.71 462.2 209.722C460.155 207.733 457.768 206.739 455.041 206.739C452.229 206.739 449.814 207.733 447.797 209.722C445.808 211.71 444.814 214.097 444.814 216.881C444.814 219.693 445.808 222.108 447.797 224.125Z" fill="#1E5AF9"/>
</svg>
