<svg width="32" height="32" viewBox="0 0 32 32" fill="none" xmlns="http://www.w3.org/2000/svg">
<circle cx="7.57895" cy="7.57895" r="7.57895" fill="#1E5AF9"/>
<path d="M15.1579 24.421C15.1579 28.6068 11.7647 32 7.57895 32C3.39321 32 0 28.6068 0 24.421C0 20.2353 3.39321 16.8421 7.57895 16.8421C11.7647 16.8421 15.1579 20.2353 15.1579 24.421ZM3.97939 24.421C3.97939 26.409 5.59097 28.0206 7.57895 28.0206C9.56693 28.0206 11.1785 26.409 11.1785 24.421C11.1785 22.4331 9.56693 20.8215 7.57895 20.8215C5.59097 20.8215 3.97939 22.4331 3.97939 24.421Z" fill="#F4C82E"/>
<path d="M16.842 0C25.2135 0 31.9999 6.78642 31.9999 15.1579V32C23.6285 32 16.842 25.2136 16.842 16.8421V0Z" fill="#101031"/>
</svg>
